<svg xmlns="http://www.w3.org/2000/svg" xmlns:xlink="http://www.w3.org/1999/xlink" width="32" height="32" version="1.1" viewBox="0 0 32 32"><title>svg/icon/iotx</title><desc>Created with Sketch.</desc><defs><linearGradient id="linearGradient-1" x1="50%" x2="50%" y1="0%" y2="100%"><stop offset="0%" stop-color="#FFF" stop-opacity=".5"/><stop offset="100%" stop-color="#000" stop-opacity=".5"/></linearGradient><circle id="path-2" cx="15" cy="15" r="15"/><filter id="filter-3" width="111.7%" height="111.7%" x="-5.8%" y="-4.2%" filterUnits="objectBoundingBox"><feOffset dx="0" dy=".5" in="SourceAlpha" result="shadowOffsetOuter1"/><feGaussianBlur in="shadowOffsetOuter1" result="shadowBlurOuter1" stdDeviation=".5"/><feComposite in="shadowBlurOuter1" in2="SourceAlpha" operator="out" result="shadowBlurOuter1"/><feColorMatrix in="shadowBlurOuter1" type="matrix" values="0 0 0 0 0 0 0 0 0 0 0 0 0 0 0 0 0 0 0.199473505 0"/></filter></defs><g id="icon/iotx" fill="none" fill-rule="evenodd" stroke="none" stroke-width="1"><g id="Group" fill-rule="nonzero" transform="translate(1.000000, 0.000000)"><g id="Oval"><use fill="#000" fill-opacity="1" filter="url(#filter-3)" xlink:href="#path-2"/><use fill="#00D4D5" xlink:href="#path-2"/><use fill="url(#linearGradient-1)" xlink:href="#path-2" style="mix-blend-mode:soft-light"/><circle cx="15" cy="15" r="14.5" stroke="#000" stroke-linejoin="square" stroke-opacity=".097" stroke-width="1"/></g></g><g id="IoTeX-(IOTX)-Copy" fill="#FFF" fill-rule="nonzero" transform="translate(3.000000, 5.000000)"><polygon id="Shape" points="13.309 0 13.309 5.002 17.652 2.505"/><polygon id="Shape" points="17.652 2.505 17.652 7.507 21.995 5.002" opacity=".9"/><polygon id="Shape" points="13.309 5.002 13.309 10.005 17.652 7.507" opacity=".8"/><polygon id="Shape" points="17.652 7.507 17.652 12.509 21.995 10.005" opacity=".8"/><polygon id="Shape" points="13.309 10.005 13.309 15.007 17.652 12.509" opacity=".8"/><polygon id="Shape" points="17.652 12.509 17.652 17.511 21.995 15.007"/><polygon id="Shape" points="2.084 4.834 2.084 9.836 6.427 7.331" opacity=".4"/><polygon id="Shape" points="7.563 6.693 7.563 11.695 11.899 9.198" opacity=".2"/><polygon id="Shape" points="4.343 9.857 4.343 14.86 8.686 12.355" opacity=".3"/><polygon id="Shape" points="7.205 13.632 7.205 18.634 11.541 16.129" opacity=".9"/><polygon id="Shape" points="13.274 15.786 13.274 20.788 17.61 18.283" opacity=".7"/><polygon id="Shape" points="8.286 4.223 8.286 9.226 12.621 6.728" opacity=".9"/><polygon id="Shape" points="13.309 0 13.309 5.002 8.966 2.505" opacity=".8"/><polygon id="Shape" points="8.286 2.126 8.286 7.128 3.943 4.623" opacity=".6"/><polygon id="Shape" points="12.629 4.602 12.629 9.605 8.286 7.1" opacity=".6"/><polygon id="Shape" points="7.542 6.693 7.542 11.695 3.199 9.198" opacity=".95"/><polygon id="Shape" points="13.309 10.005 13.309 15.007 8.973 12.509" opacity=".6"/><polygon id="Shape" points="4.343 11.169 4.343 16.172 0 13.667" opacity=".55"/><polygon id="Shape" points="21.995 5.002 21.995 10.005 17.652 7.507"/><polygon id="Shape" points="17.652 7.507 17.652 12.509 13.309 10.005" opacity=".95"/><polygon id="Shape" points="21.995 10.005 21.995 15.007 17.652 12.509" opacity=".9"/><polygon id="Shape" points="17.652 12.509 17.652 17.511 13.309 15.007" opacity=".7"/><polygon id="Shape" points="12.348 14.593 12.348 19.595 8.005 17.098" opacity=".4"/><polygon id="Shape" points="17.652 2.505 17.652 7.507 13.309 5.002"/></g></g></svg>