<svg xmlns="http://www.w3.org/2000/svg" xmlns:xlink="http://www.w3.org/1999/xlink" width="32" height="32" version="1.1" viewBox="0 0 32 32"><title>icon/neu</title><desc>Created with Sketch.</desc><defs><linearGradient id="linearGradient-1" x1="50%" x2="50%" y1="0%" y2="100%"><stop offset="0%" stop-color="#FFF" stop-opacity=".5"/><stop offset="100%" stop-color="#000" stop-opacity=".5"/></linearGradient><circle id="path-2" cx="15" cy="15" r="15"/><filter id="filter-3" width="111.7%" height="111.7%" x="-5.8%" y="-4.2%" filterUnits="objectBoundingBox"><feOffset dx="0" dy=".5" in="SourceAlpha" result="shadowOffsetOuter1"/><feGaussianBlur in="shadowOffsetOuter1" result="shadowBlurOuter1" stdDeviation=".5"/><feComposite in="shadowBlurOuter1" in2="SourceAlpha" operator="out" result="shadowBlurOuter1"/><feColorMatrix in="shadowBlurOuter1" type="matrix" values="0 0 0 0 0 0 0 0 0 0 0 0 0 0 0 0 0 0 0.199473505 0"/></filter></defs><g id="icon/neu" fill="none" fill-rule="evenodd" stroke="none" stroke-width="1"><g id="Group" fill-rule="nonzero" transform="translate(1.000000, 0.000000)"><g id="Oval"><use fill="#000" fill-opacity="1" filter="url(#filter-3)" xlink:href="#path-2"/><use fill="#B3BA00" fill-rule="evenodd" xlink:href="#path-2"/><use fill="url(#linearGradient-1)" fill-rule="evenodd" xlink:href="#path-2" style="mix-blend-mode:soft-light"/><circle cx="15" cy="15" r="14.5" stroke="#000" stroke-linejoin="square" stroke-opacity=".097" stroke-width="1"/></g></g><g id="Neumark-(NEU)" fill="#FFF" fill-rule="nonzero" transform="translate(5.000000, 4.000000)"><polygon id="Shape" points="8.273 6.186 8.152 6.261 13.75 15.106 13.75 6.253 10.955 4.596"/><polygon id="Shape" points="8.092 15.611 10.955 17.314 13.569 15.762 8.092 7.105"/><polygon id="Shape" points="5.59 7.775 5.59 14.134 7.587 15.317 7.587 6.592"/><polygon id="Shape" points="14.255 15.355 16.319 14.134 16.319 7.775 14.255 6.555"/><path id="Shape" d="M11,0 C4.92739726,0 0,4.92739726 0,11 C0,17.0726027 4.92739726,22 11,22 C17.0726027,22 22,17.0726027 22,11 C22,4.92739726 17.0726027,0 11,0 Z M10.9547945,17.9842466 L5.01780822,14.4657534 L5.01780822,7.43630137 L10.9547945,3.92534247 L16.8917808,7.43630137 L16.8917808,14.4657534 L10.9547945,17.9842466 Z"/></g></g></svg>