<svg xmlns="http://www.w3.org/2000/svg" xmlns:xlink="http://www.w3.org/1999/xlink" width="32" height="32" version="1.1" viewBox="0 0 32 32"><title>svg/icon/shift</title><desc>Created with Sketch.</desc><defs><linearGradient id="linearGradient-1" x1="50%" x2="50%" y1="0%" y2="100%"><stop offset="0%" stop-color="#FFF" stop-opacity=".5"/><stop offset="100%" stop-color="#000" stop-opacity=".5"/></linearGradient><circle id="path-2" cx="15" cy="15" r="15"/><filter id="filter-3" width="111.7%" height="111.7%" x="-5.8%" y="-4.2%" filterUnits="objectBoundingBox"><feOffset dx="0" dy=".5" in="SourceAlpha" result="shadowOffsetOuter1"/><feGaussianBlur in="shadowOffsetOuter1" result="shadowBlurOuter1" stdDeviation=".5"/><feComposite in="shadowBlurOuter1" in2="SourceAlpha" operator="out" result="shadowBlurOuter1"/><feColorMatrix in="shadowBlurOuter1" type="matrix" values="0 0 0 0 0 0 0 0 0 0 0 0 0 0 0 0 0 0 0.199473505 0"/></filter></defs><g id="icon/shift" fill="none" fill-rule="evenodd" stroke="none" stroke-width="1"><g id="Group" fill-rule="nonzero" transform="translate(1.000000, 0.000000)"><g id="Oval"><use fill="#000" fill-opacity="1" filter="url(#filter-3)" xlink:href="#path-2"/><use fill="#964B9C" xlink:href="#path-2"/><use fill="url(#linearGradient-1)" xlink:href="#path-2" style="mix-blend-mode:soft-light"/><circle cx="15" cy="15" r="14.5" stroke="#000" stroke-linejoin="square" stroke-opacity=".097" stroke-width="1"/></g></g><g id="Shift-(SHIFT)" fill="#FFF" fill-rule="nonzero" transform="translate(8.000000, 3.000000)"><polygon id="Shape" points="12.006 11.916 8.031 15.891 15.98 15.891 12.006 11.916" opacity=".6"/><polygon id="Shape" points="4.025 11.92 8 7.945 .05 7.945 4.026 11.92" opacity=".7"/><polygon id="Shape" points="8.031 15.891 11.996 11.926 8.013 7.943 .064 15.892 8.013 23.841 15.961 15.892 15.96 15.891" opacity=".4"/><polygon id="Shape" points="8.049 0 .105 7.944 8 7.944 4.048 11.896 8.049 15.897 15.998 7.949" opacity=".8"/></g></g></svg>