<svg xmlns="http://www.w3.org/2000/svg" xmlns:xlink="http://www.w3.org/1999/xlink" width="32" height="32" version="1.1" viewBox="0 0 32 32"><title>svg/black/iotx</title><desc>Created with Sketch.</desc><g id="black/iotx" fill="none" fill-rule="evenodd" stroke="none" stroke-width="1"><circle id="Combined-Shape" cx="16" cy="16" r="16" fill="#000" fill-rule="nonzero"/><g id="IoTeX-(IOTX)" fill="#FFF" fill-rule="nonzero" transform="translate(2.000000, 5.000000)"><polygon id="Shape" points="14.519 0 14.519 5.457 19.257 2.732"/><polygon id="Shape" points="19.257 2.732 19.257 8.189 23.994 5.457" opacity=".9"/><polygon id="Shape" points="14.519 5.457 14.519 10.914 19.257 8.189" opacity=".8"/><polygon id="Shape" points="19.257 8.189 19.257 13.646 23.994 10.914" opacity=".8"/><polygon id="Shape" points="14.519 10.914 14.519 16.371 19.257 13.646" opacity=".8"/><polygon id="Shape" points="19.257 13.646 19.257 19.103 23.994 16.371"/><polygon id="Shape" points="2.273 5.273 2.273 10.73 7.011 7.998" opacity=".4"/><polygon id="Shape" points="8.251 7.302 8.251 12.759 12.981 10.034" opacity=".2"/><polygon id="Shape" points="4.738 10.753 4.738 16.21 9.475 13.478" opacity=".3"/><polygon id="Shape" points="7.86 14.871 7.86 20.328 12.59 17.596" opacity=".9"/><polygon id="Shape" points="14.481 17.221 14.481 22.678 19.211 19.945" opacity=".7"/><polygon id="Shape" points="9.039 4.607 9.039 10.065 13.769 7.34" opacity=".9"/><polygon id="Shape" points="14.519 0 14.519 5.457 9.781 2.732" opacity=".8"/><polygon id="Shape" points="9.039 2.319 9.039 7.776 4.301 5.044" opacity=".6"/><polygon id="Shape" points="13.777 5.021 13.777 10.478 9.039 7.745" opacity=".6"/><polygon id="Shape" points="8.228 7.302 8.228 12.759 3.49 10.034" opacity=".95"/><polygon id="Shape" points="14.519 10.914 14.519 16.371 9.789 13.646" opacity=".6"/><polygon id="Shape" points="4.738 12.185 4.738 17.642 0 14.909" opacity=".55"/><polygon id="Shape" points="23.994 5.457 23.994 10.914 19.257 8.189"/><polygon id="Shape" points="19.257 8.189 19.257 13.646 14.519 10.914" opacity=".95"/><polygon id="Shape" points="23.994 10.914 23.994 16.371 19.257 13.646" opacity=".9"/><polygon id="Shape" points="19.257 13.646 19.257 19.103 14.519 16.371" opacity=".7"/><polygon id="Shape" points="13.47 15.92 13.47 21.377 8.733 18.652" opacity=".4"/><polygon id="Shape" points="19.257 2.732 19.257 8.189 14.519 5.457"/></g></g></svg>