<svg xmlns="http://www.w3.org/2000/svg" xmlns:xlink="http://www.w3.org/1999/xlink" width="32" height="32" version="1.1" viewBox="0 0 32 32"><title>black/neu</title><desc>Created with Sketch.</desc><g id="black/neu" fill="none" fill-rule="evenodd" stroke="none" stroke-width="1"><circle id="Combined-Shape" cx="16" cy="16" r="16" fill="#000" fill-rule="nonzero"/><g id="Neumark-(NEU)" fill="#FFF" fill-rule="nonzero" transform="translate(4.000000, 4.000000)"><polygon id="Shape" points="9.025 6.748 8.893 6.83 15 16.479 15 6.822 11.951 5.014"/><polygon id="Shape" points="8.827 17.03 11.951 18.888 14.803 17.195 8.827 7.751"/><polygon id="Shape" points="6.099 8.482 6.099 15.419 8.277 16.71 8.277 7.192"/><polygon id="Shape" points="15.551 16.751 17.803 15.419 17.803 8.482 15.551 7.151"/><path id="Shape" d="M12,0 C5.37534247,0 0,5.37534247 0,12 C0,18.6246575 5.37534247,24 12,24 C18.6246575,24 24,18.6246575 24,12 C24,5.37534247 18.6246575,0 12,0 Z M11.9506849,19.6191781 L5.4739726,15.7808219 L5.4739726,8.11232877 L11.9506849,4.28219178 L18.4273973,8.11232877 L18.4273973,15.7808219 L11.9506849,19.6191781 Z"/></g></g></svg>