<svg xmlns="http://www.w3.org/2000/svg" xmlns:xlink="http://www.w3.org/1999/xlink" width="32" height="32" version="1.1" viewBox="0 0 32 32"><title>svg/black/nexo</title><desc>Created with Sketch.</desc><g id="black/nexo" fill="none" fill-rule="evenodd" stroke="none" stroke-width="1"><circle id="Combined-Shape" cx="16" cy="16" r="16" fill="#000" fill-rule="nonzero"/><g id="Nexo-(NEXO)" fill="#FFF" fill-rule="nonzero" transform="translate(5.000000, 7.000000)"><path id="Shape" d="M5.676,0.1254 L16.4076,6.3162 L16.4076,12.6346 L0,3.1592 L5.2646,0.1254 C5.39461033,0.0503384996 5.55478967,0.0503384996 5.6848,0.1254" opacity=".7"/><polygon id="Shape-2" points="16.408 0 10.941 3.159 16.408 6.316" opacity=".9"/><path id="Shape-3" d="M16.4076,0 L21.6722,3.036 C21.8071172,3.10910892 21.891453,3.24994962 21.8922,3.4034 L21.8922,15.7916 L16.4076,12.6346 L16.4076,0 Z"/><path id="Shape-4" d="M21.8812,15.7916 L16.6166,18.8254 C16.4855823,18.8966027 16.3274177,18.8966027 16.1964,18.8254 L5.4648,12.6346 L5.4648,6.3074 L21.8812,15.7916 Z" opacity=".9"/><path id="Shape-5" d="M0,3.1592 L0,15.5474 C0.000747000955,15.7008504 0.085082751,15.8416911 0.22,15.9148 L5.4846,18.9508 L5.4846,6.3074 L0,3.1592 Z" opacity=".6"/><polygon id="Shape-6" points="5.476 18.951 10.941 15.792 5.476 12.635" opacity=".7"/></g></g></svg>